<?xml version="1.0" encoding="UTF-8"?>
<svg xmlns="http://www.w3.org/2000/svg" fill="#1d1d1d" xmlns:xlink="http://www.w3.org/1999/xlink"
    width="28px" height="28px" viewBox="0 0 28 28" version="1.1">
<g id="surface1">
<path  d="M 15.363281 1.265625 C 13.539062 1.53125 11.878906 2.773438 11.128906 4.4375 C 10.730469 5.320312 10.640625 5.878906 10.640625 7.574219 L 10.640625 9.101562 L 7.488281 9.101562 L 7.488281 13.859375 L 10.640625 13.859375 L 10.640625 26.460938 L 13.007812 26.445312 L 15.363281 26.425781 L 15.386719 20.140625 L 15.398438 13.859375 L 17.359375 13.859375 C 18.4375 13.859375 19.320312 13.847656 19.320312 13.816406 C 19.320312 13.796875 19.496094 12.746094 19.703125 11.480469 C 19.914062 10.214844 20.089844 9.164062 20.089844 9.140625 C 20.089844 9.113281 19.03125 9.101562 17.746094 9.101562 L 15.398438 9.101562 L 15.398438 7.785156 C 15.398438 5.851562 15.253906 5.949219 18.058594 5.949219 L 20.089844 5.949219 L 20.089844 1.191406 L 17.941406 1.195312 C 16.75 1.203125 15.597656 1.230469 15.363281 1.265625 Z M 15.363281 1.265625 "/>
</g>
</svg>
