<?xml version="1.0" standalone="no"?>
<!DOCTYPE svg PUBLIC "-//W3C//DTD SVG 20010904//EN"
 "http://www.w3.org/TR/2001/REC-SVG-20010904/DTD/svg10.dtd">
<svg version="1.0" xmlns="http://www.w3.org/2000/svg"
 width="129.000000pt" height="129.000000pt" viewBox="0 0 129.000000 129.000000"
 preserveAspectRatio="xMidYMid meet">

<g transform="translate(0.000000,129.000000) scale(0.100000,-0.100000)"
fill="#000000" stroke="none">
<path d="M1109 1104 c-19 -7 -252 -97 -519 -199 -266 -102 -491 -192 -499
-200 -12 -11 -13 -20 -5 -32 12 -19 260 -106 285 -100 9 3 149 86 313 186 163
101 301 181 307 179 6 -2 -91 -97 -216 -212 -124 -114 -232 -218 -239 -230 -8
-12 -17 -69 -21 -139 -5 -99 -4 -117 8 -117 8 0 49 32 91 71 l75 70 126 -95
c69 -53 134 -100 143 -105 24 -12 58 3 65 31 3 13 47 209 97 436 84 381 90
415 76 436 -19 31 -45 36 -87 20z"/>
</g>
</svg>
