<?xml version="1.0" encoding="UTF-8"?><svg viewBox="0 0 320 320" xmlns="http://www.w3.org/2000/svg" xmlns:xlink="http://www.w3.org/1999/xlink"><style>:root>svg{display:none}:root>svg:target{display:block}</style><svg fill="#1d1d1d" viewBox="0 0 28 28" id="facebook" xmlns="http://www.w3.org/2000/svg"><path d="M15.363 1.266c-1.824.265-3.484 1.507-4.234 3.171-.399.883-.488 1.442-.488 3.137v1.528H7.488v4.757h3.153v12.602l2.367-.016 2.355-.02.024-6.284.011-6.282h1.961c1.078 0 1.961-.011 1.961-.043 0-.02.176-1.07.383-2.336.211-1.265.387-2.316.387-2.34 0-.027-1.059-.038-2.344-.038h-2.348V7.785c0-1.933-.144-1.836 2.66-1.836h2.032V1.191l-2.149.004c-1.191.008-2.343.035-2.578.07Zm0 0"/></svg><svg version="1.0" viewBox="0 0 240 240" id="instagram" xmlns="http://www.w3.org/2000/svg"><path d="M63.2 1.1c-26 3-44.5 14.7-54 34C.9 52 0 60.5 0 120c0 59.5.9 68 9.2 84.9 5.7 11.5 14.4 20.2 25.9 25.9C52 239.1 60.5 240 120 240c59.5 0 68-.9 84.9-9.2 19.8-9.7 30.9-27.8 34.1-55.3 1.3-11.7 1.3-99.3 0-111-2.3-19.8-8.2-33.7-19-44.5-10.8-10.8-24.7-16.7-44.5-19C164.8-.2 73.8-.1 63.2 1.1zM172.8 23c28.5 2.9 41.3 15.7 44.2 44.2 1.3 13 1.3 92.6 0 105.6-2.9 28.5-15.7 41.3-44.2 44.2-13 1.3-92.6 1.3-105.6 0-28.5-2.9-41.3-15.7-44.2-44.2-1.3-13-1.3-92.6 0-105.6.6-5.5 2-12.7 3.1-15.9 5.6-16.6 18.8-26 39.5-28.2 11.6-1.2 95.5-1.3 107.2-.1z"/><path d="M179.5 42.1c-8.9 2.6-12.5 14.1-7 22.5 4.1 6.3 15.9 7.3 21.5 1.9 8.1-7.8 4.7-21.4-6.1-24.5-3.9-1.1-4.3-1.1-8.4.1zM107 59.6c-32.7 7-54.3 40.2-47.5 72.9 6.9 33.1 40 54.9 73 48 23.6-4.9 43.1-24.4 48-48 2.9-14 1.2-26.7-5.6-40.4-12.2-24.7-40.7-38.4-67.9-32.5zm22.5 21.9c11.7 3.1 20.9 10.5 26.1 21 11.7 24-2.6 51.7-29.4 56.7-20.8 3.9-41.3-11.1-45.4-33-2.8-15 5-31.9 18.3-39.9 9.9-5.9 19.9-7.5 30.4-4.8z"/></svg><svg version="1.0" viewBox="0 0 129 129" id="telegram" xmlns="http://www.w3.org/2000/svg"><path d="M110.9 18.6c-1.9.7-25.2 9.7-51.9 19.9-26.6 10.2-49.1 19.2-49.9 20-1.2 1.1-1.3 2-.5 3.2 1.2 1.9 26 10.6 28.5 10 .9-.3 14.9-8.6 31.3-18.6C84.7 43 98.5 35 99.1 35.2c.6.2-9.1 9.7-21.6 21.2-12.4 11.4-23.2 21.8-23.9 23-.8 1.2-1.7 6.9-2.1 13.9-.5 9.9-.4 11.7.8 11.7.8 0 4.9-3.2 9.1-7.1l7.5-7 12.6 9.5c6.9 5.3 13.4 10 14.3 10.5 2.4 1.2 5.8-.3 6.5-3.1.3-1.3 4.7-20.9 9.7-43.6 8.4-38.1 9-41.5 7.6-43.6-1.9-3.1-4.5-3.6-8.7-2z"/></svg></svg>